<svg xmlns="http://www.w3.org/2000/svg" viewBox="0 0 64 64" role="img" aria-label="Gakuen Blade emblem icon">
  <defs>
    <linearGradient id="gold" x1="12" y1="8" x2="52" y2="58" gradientUnits="userSpaceOnUse">
      <stop offset="0" stop-color="#fff0a6"/>
      <stop offset="0.46" stop-color="#d6a737"/>
      <stop offset="1" stop-color="#8f5c13"/>
    </linearGradient>
    <linearGradient id="shield" x1="23" y1="13" x2="45" y2="54" gradientUnits="userSpaceOnUse">
      <stop offset="0" stop-color="#1d2230"/>
      <stop offset="0.62" stop-color="#07090e"/>
      <stop offset="1" stop-color="#15100a"/>
    </linearGradient>
    <filter id="shadow" x="-20%" y="-20%" width="140%" height="145%">
      <feDropShadow dx="0" dy="2" stdDeviation="1.5" flood-color="#000" flood-opacity="0.55"/>
    </filter>
  </defs>

  <rect width="64" height="64" rx="12" fill="#0b0d12"/>
  <path d="M9 40C17 33 20 22 25 11" fill="none" stroke="#15100a" stroke-width="6" stroke-linecap="round"/>
  <path d="M55 40C47 33 44 22 39 11" fill="none" stroke="#15100a" stroke-width="6" stroke-linecap="round"/>
  <g fill="url(#gold)" stroke="#271806" stroke-width="0.7">
    <path d="M17 40l5-1-3 4z"/>
    <path d="M14 35l5-.2-3.8 3.4z"/>
    <path d="M13 30l4.8.8-4.3 2.5z"/>
    <path d="M15 25l4.3 1.7-4.8 1.4z"/>
    <path d="M18 20l3.7 2.5-5 .4z"/>
    <path d="M22 15l2.7 3.2-4.8-.6z"/>
    <path d="M47 40l-5-1 3 4z"/>
    <path d="M50 35l-5-.2 3.8 3.4z"/>
    <path d="M51 30l-4.8.8 4.3 2.5z"/>
    <path d="M49 25l-4.3 1.7 4.8 1.4z"/>
    <path d="M46 20l-3.7 2.5 5 .4z"/>
    <path d="M42 15l-2.7 3.2 4.8-.6z"/>
  </g>

  <g filter="url(#shadow)">
    <path d="M32 10l18 8-3 24-15 12-15-12-3-24z" fill="url(#gold)"/>
    <path d="M32 14l13.5 6-2.3 19.5L32 48.5 20.8 39.5 18.5 20z" fill="url(#shield)"/>
    <path d="M21.6 21.8L32 17.2l10.4 4.6-1.9 15.6L32 44.1l-8.5-6.7z" fill="none" stroke="#f6d46d" stroke-width="1.2" opacity="0.85"/>
  </g>

  <g transform="translate(32 30)" fill="#ffe88d" stroke="#6d420b" stroke-width="0.75" stroke-linejoin="round">
    <path d="M0-3.2C-2.3-9.1 2.3-9.1 0-3.2z"/>
    <path d="M3 0c5.8-2.6 7.1 1.8.9 1.6z"/>
    <path d="M1.8 3.2c3.8 5.1 0 7.8-1.5 1.8z"/>
    <path d="M-1.8 3.2c-1.5 6-5.3 3.3-1.5-1.8z"/>
    <path d="M-3 0c-6.2.2-4.9-4.2.9-1.6z"/>
    <circle r="1.8" fill="#d79f25"/>
  </g>

  <path d="M18 50l8 3.2 6 7.2 6-7.2 8-3.2-8.7.6L32 55.8l-5.3-5.2z" fill="url(#gold)" stroke="#271806" stroke-width="0.8"/>
</svg>
